<svg width="13" height="14" xmlns="http://www.w3.org/2000/svg"><g fill="#3F5D75" fill-rule="evenodd"><path d="M9.264 7.973c-.81 1.15-1.93 1.865-3.167 1.865-1.235 0-2.355-.713-3.164-1.862A7.597 7.597 0 00.382 9.874C.01 10.3-.021 10.94.349 11.368A7.594 7.594 0 006.102 14a7.594 7.594 0 005.709-2.581 1.169 1.169 0 00.01-1.547 7.587 7.587 0 00-2.557-1.9"/><path d="M6.098.062A3.471 3.471 0 002.63 3.529c0 1.648.503 3.104 1.275 4.079.6.756 1.357 1.229 2.192 1.229.836 0 1.593-.474 2.192-1.231.772-.975 1.275-2.43 1.275-4.077A3.471 3.471 0 006.098.062"/></g></svg>