<svg width="14" height="14" xmlns="http://www.w3.org/2000/svg"><path d="M13.065 11H7v2h6.065a.935.935 0 00.935-.935v-.13a.935.935 0 00-.935-.935M0 7.065C0 7.582.419 8 .935 8H8v1h2V5H8v1H.935A.936.936 0 000 6.936v.129zM13.065 6H11v2h2.065A.935.935 0 0014 7.065v-.13A.935.935 0 0013.065 6M0 2.065C0 2.582.419 3 .935 3H4v1h2V0H4v1H.935A.936.936 0 000 1.936v.129zM13.065 1H7v2h6.065A.935.935 0 0014 2.065v-.13A.935.935 0 0013.065 1M4 14h2v-4H4v1H.935a.935.935 0 00-.935.935v.13c0 .516.419.935.935.935H4v1z" fill="#3F5D75" fill-rule="evenodd"/></svg>